<svg xmlns="http://www.w3.org/2000/svg" version="1.1" xmlns:xlink="http://www.w3.org/1999/xlink" xmlns:svgjs="http://svgjs.com/svgjs" width="1000" height="1000"><rect width="1000" height="1000" rx="200" ry="200" fill="#f0fff1"></rect><g transform="matrix(15.402387370042357,0,0,15.402387370042357,235.44613101491177,100.22350081147755)"><svg xmlns="http://www.w3.org/2000/svg" version="1.1" xmlns:xlink="http://www.w3.org/1999/xlink" xmlns:svgjs="http://svgjs.com/svgjs" width="34.34" height="51.94"><svg xmlns="http://www.w3.org/2000/svg" xmlns:xlink="http://www.w3.org/1999/xlink" viewBox="0 0 34.34 51.94"><defs><style>.cls-1{fill:url(#Degradado_sin_nombre_12);}.cls-2{fill:url(#Degradado_sin_nombre_12-2);}</style><linearGradient id="Degradado_sin_nombre_12" x1="61.05" y1="-19.58" x2="-0.22" y2="41.69" gradientUnits="userSpaceOnUse"><stop offset="0" stop-color="#3fa9f5"></stop><stop offset="1" stop-color="#0b556f"></stop></linearGradient><linearGradient id="Degradado_sin_nombre_12-2" x1="72.71" y1="-7.92" x2="11.44" y2="53.35" xlink:href="#Degradado_sin_nombre_12"></linearGradient></defs><g id="Capa_2" data-name="Capa 2"><g id="Capa_1-2" data-name="Capa 1"><path class="cls-1" d="M19.47,25.72a12.55,12.55,0,0,0,5.12-.25,13.19,13.19,0,0,0,4.46-2.11,12.75,12.75,0,0,0,5.1-8.46,12.86,12.86,0,0,0-.43-6.28,11.51,11.51,0,0,0-3-4.69A13.5,13.5,0,0,0,25.8,1a19.27,19.27,0,0,0-6.33-1H10.05V32.54h.2c-2.37.77-5,.15-5.84.47-1.34.82-2,2.24-4.4-.2,0,0-.44,4.07,4,3.26,0,0,3.88-2.45,4.47-.82a12.62,12.62,0,0,0-.89,4.07c-.15,2.45-1.19,2.85-1.19,2.85C7.61,46.36,8.58,33.67,13,34c.22,2.42-3.54,4.39-1.64,12.21,1.2,4.89,1.34,1.63,1.94,5.7a41.2,41.2,0,0,0-1-6.92c-.81-3.5,3-8.29,3.13-11.81a.6.6,0,0,1,.32-.67h1c.88.25,1.88,1,2,1.9.15,1.63-1.93,3.25-1.93,4.07s3.42-1.22,3.87-2c1.58,2,2.53,9.43,5.66,10.18-.63-.24-4.06-8.75-3.87-11,1.14-.13,2.51.06,3.79,2-1.19-2.43-1.52-4.93,1.72-2,1.64,1.63,5.21.81,5.21.81-2.1.18-5-3.76-7.74-3.66-1.4.94-4,.93-6.22-.27h.35Zm0-15.89h2.16a3.06,3.06,0,0,1,3.09,3.1,3.11,3.11,0,0,1-.89,2.22,3,3,0,0,1-2.2.92H19.47Z"></path><path class="cls-2" d="M26.15,37.7c.21.41.43.83.68,1.22A9.67,9.67,0,0,0,26.15,37.7Z"></path></g></g></svg></svg></g></svg>