<svg xmlns="http://www.w3.org/2000/svg" xmlns:xlink="http://www.w3.org/1999/xlink" viewBox="0 0 120 52.9"><defs><style>.cls-1{fill:url(#Degradado_sin_nombre_12);}.cls-2{fill:url(#Degradado_sin_nombre_12-2);}.cls-3{fill:url(#Degradado_sin_nombre_12-3);}.cls-4{fill:url(#Degradado_sin_nombre_12-4);}.cls-5{fill:url(#Degradado_sin_nombre_12-5);}.cls-6{fill:url(#Degradado_sin_nombre_12-6);}.cls-7{fill:url(#Degradado_sin_nombre_12-7);}.cls-8{fill:url(#Degradado_sin_nombre_12-8);}.cls-9{fill:url(#Degradado_sin_nombre_12-9);}</style><linearGradient id="Degradado_sin_nombre_12" x1="127.77" y1="-28.64" x2="-1.92" y2="14.4" gradientUnits="userSpaceOnUse"><stop offset="0" stop-color="#3fa9f5"/><stop offset="1" stop-color="#0b556f"/></linearGradient><linearGradient id="Degradado_sin_nombre_12-2" x1="129.48" y1="-23.47" x2="-0.2" y2="19.57" xlink:href="#Degradado_sin_nombre_12"/><linearGradient id="Degradado_sin_nombre_12-3" x1="130.97" y1="-19" x2="1.29" y2="24.05" xlink:href="#Degradado_sin_nombre_12"/><linearGradient id="Degradado_sin_nombre_12-4" x1="133.79" y1="-10.5" x2="4.11" y2="32.54" xlink:href="#Degradado_sin_nombre_12"/><linearGradient id="Degradado_sin_nombre_12-5" x1="134.93" y1="-7.06" x2="5.25" y2="35.98" xlink:href="#Degradado_sin_nombre_12"/><linearGradient id="Degradado_sin_nombre_12-6" x1="133.39" y1="-11.7" x2="3.71" y2="31.35" xlink:href="#Degradado_sin_nombre_12"/><linearGradient id="Degradado_sin_nombre_12-7" x1="136.89" y1="-1.17" x2="7.2" y2="41.88" xlink:href="#Degradado_sin_nombre_12"/><linearGradient id="Degradado_sin_nombre_12-8" x1="143.59" y1="19.02" x2="13.9" y2="62.06" xlink:href="#Degradado_sin_nombre_12"/><linearGradient id="Degradado_sin_nombre_12-9" x1="138.07" y1="2.4" x2="8.39" y2="45.45" xlink:href="#Degradado_sin_nombre_12"/></defs><g id="Capa_2" data-name="Capa 2"><g id="Capa_1-2" data-name="Capa 1"><path class="cls-1" d="M11.9,15.76a6.77,6.77,0,0,0,2.77-.13,7,7,0,0,0,4.22-3.1,7.12,7.12,0,0,0,.95-2.61,7.05,7.05,0,0,0-.24-3.4A6.14,6.14,0,0,0,18,4a7.4,7.4,0,0,0-2.67-1.58,10.48,10.48,0,0,0-3.42-.54H6.81V19.45H11.9Zm0-8.58h1.17a1.64,1.64,0,0,1,1.67,1.67,1.66,1.66,0,0,1-.48,1.2,1.62,1.62,0,0,1-1.19.5H11.9Z"/><polygon class="cls-2" points="32.76 14.36 25.66 14.36 25.66 12.8 31.6 12.8 31.6 8.54 25.66 8.54 25.66 6.96 32.76 6.96 32.76 1.87 20.56 1.87 20.56 19.45 32.76 19.45 32.76 14.36"/><path class="cls-3" d="M33.26,14.2a9.09,9.09,0,0,0,4.85,4.85,9.11,9.11,0,0,0,7.1,0,9.25,9.25,0,0,0,2.9-1.95,9,9,0,0,0,2-2.9,8.84,8.84,0,0,0,.72-3.55,8.88,8.88,0,0,0-.72-3.56,9,9,0,0,0-2-2.89,9.11,9.11,0,0,0-2.9-2,9.23,9.23,0,0,0-7.1,0,9.22,9.22,0,0,0-2.9,2,9.32,9.32,0,0,0-2,2.89,8.88,8.88,0,0,0-.72,3.56A8.84,8.84,0,0,0,33.26,14.2Zm4.92-5.08A3.68,3.68,0,0,1,39,7.91a4,4,0,0,1,1.22-.82,3.93,3.93,0,0,1,3,0,4,4,0,0,1,1.21.82,3.84,3.84,0,0,1,.81,4.22,4.06,4.06,0,0,1-.81,1.22,3.74,3.74,0,0,1-2.72,1.13,3.79,3.79,0,0,1-1.5-.3A3.88,3.88,0,0,1,39,13.35a3.94,3.94,0,0,1-.83-1.22,3.93,3.93,0,0,1,0-3Z"/><polygon class="cls-4" points="74.43 14.36 70.74 14.36 70.74 1.87 65.65 1.87 65.65 19.45 74.43 19.45 74.43 14.36"/><polygon class="cls-5" points="87.64 14.36 80.54 14.36 80.54 12.8 86.48 12.8 86.48 8.54 80.54 8.54 80.54 6.96 87.64 6.96 87.64 1.87 75.44 1.87 75.44 19.45 87.64 19.45 87.64 14.36"/><path class="cls-6" d="M88.75,4.21h2.68a.71.71,0,0,0,.31-.06,1.83,1.83,0,0,0,.32-.23L95.52.34c.1-.08.11-.16,0-.23A.59.59,0,0,0,95.16,0H92.1a.8.8,0,0,0-.55.32L88.81,3.73,88.6,4c-.06.06-.07.11,0,.15S88.64,4.2,88.75,4.21Z"/><path class="cls-7" d="M95.36,6.65a4.94,4.94,0,0,0,.4,1.89,6.86,6.86,0,0,0,1.1,1.75,7.55,7.55,0,0,0,1.63,1.44,6.58,6.58,0,0,0,2.09.88l.56.18a3.4,3.4,0,0,1,.54.27,1.45,1.45,0,0,1,.43.39.85.85,0,0,1,.17.52.74.74,0,0,1-.32.57,1.6,1.6,0,0,1-.65.18,3.48,3.48,0,0,1-1.18-.19L99,14.11l-1.14-.41-.73-.28-.73-.25-1.16,5.21c.73.28,1.32.49,1.78.63s.91.27,1.35.37a10.15,10.15,0,0,0,1.23.17,13.15,13.15,0,0,0,1.41,0h.73a4.8,4.8,0,0,0,.51,0,7.53,7.53,0,0,0,2.29-.62,5.75,5.75,0,0,0,1.8-1.23,5.36,5.36,0,0,0,1.18-1.8,5.7,5.7,0,0,0,.4-2.31,4.52,4.52,0,0,0-.3-1.65,5,5,0,0,0-.84-1.42,5.48,5.48,0,0,0-1.26-1.13,6.18,6.18,0,0,0-1.6-.75l-2.77-.9a1.39,1.39,0,0,1-.44-.46.4.4,0,0,1,.08-.56,1.81,1.81,0,0,1,.79-.34,4.11,4.11,0,0,1,.93,0,16.1,16.1,0,0,1,1.87.39,14.54,14.54,0,0,1,1.79.58c.07-1.1.11-1.92.13-2.46s0-.95,0-1.21V3c0-.13,0-.33.05-.6a11.93,11.93,0,0,0-2.58-.62,15.67,15.67,0,0,0-2.56-.11A7.85,7.85,0,0,0,99.17,2a5.53,5.53,0,0,0-1.71.71,5,5,0,0,0-1.19,1.1,4.38,4.38,0,0,0-.69,1.34A5.46,5.46,0,0,0,95.36,6.65Z"/><path class="cls-8" d="M94.83,34a26.65,26.65,0,0,0,2.48,1.64A20.41,20.41,0,0,0,94.83,34Z"/><path class="cls-9" d="M91.9,27.5c-8.52,2.1-29.56.67-35.12-5.94-.07-.8-.11-1.5-.14-2.11h.08V15.76a6.77,6.77,0,0,0,2.77-.13,6.9,6.9,0,0,0,5.16-5.71,6.94,6.94,0,0,0-.23-3.4A6.25,6.25,0,0,0,62.81,4a7.4,7.4,0,0,0-2.67-1.58,10.48,10.48,0,0,0-3.42-.54H51.63V19.45h.11C48.52,30.31,21.35,27,16,27.77c-4.86,1.08-7.29,3-15.93-.27,0,0-1.63,5.41,14.58,4.33,0,0,14.05-3.25,16.21-1.08a9.82,9.82,0,0,0-3.24,5.4c-.54,3.24-4.32,3.78-4.32,3.78,4.32,5.56,7.82-11.28,23.78-10.8.77,3.21-12.85,5.82-6,16.2,4.32,6.49,4.86,2.17,7,7.57,0,0-1.08-5.94-3.79-9.19-2.94-4.65,11-11,11.35-15.67-.54-2.16,11.35-.54,11.89,1.62s-7,4.33-7,5.41,12.43-1.62,14-2.7c5.72,2.7,9.19,12.51,20.54,13.51-2.29-.33-14.72-11.62-14.05-14.59,4.15-.17,9.07.08,13.73,2.68-4.3-3.22-5.45-6.51,6.26-2.68C107,33.45,120,32.37,120,32.37,112.38,32.6,101.69,27.37,91.9,27.5ZM56.72,7.18h1.17a1.66,1.66,0,0,1,1.67,1.67,1.63,1.63,0,0,1-.49,1.2,1.59,1.59,0,0,1-1.18.5H56.72Z"/></g></g></svg>